<?xml version="1.0" standalone="no"?>
<!DOCTYPE svg PUBLIC "-//W3C//DTD SVG 20010904//EN"
 "http://www.w3.org/TR/2001/REC-SVG-20010904/DTD/svg10.dtd">
<svg version="1.0" xmlns="http://www.w3.org/2000/svg"
 width="76.000000pt" height="76.000000pt" viewBox="0 0 76.000000 76.000000"
 preserveAspectRatio="xMidYMid meet">
<metadata>
Created by potrace 1.11, written by Peter Selinger 2001-2013
</metadata>
<g transform="translate(0.000000,76.000000) scale(0.100000,-0.100000)"
fill="#000000" stroke="none">
<path d="M108 642 l-108 -109 0 -158 0 -158 108 -109 109 -108 150 0 c150 0
150 0 189 29 44 32 152 143 178 181 13 20 16 51 16 165 0 114 -3 145 -16 165
-26 38 -134 149 -178 181 -39 29 -39 29 -189 29 l-150 0 -109 -108z m210 83
c-11 -11 -148 -53 -142 -44 14 23 71 49 108 49 22 0 37 -2 34 -5z m205 -8 c31
-13 64 -43 56 -51 -2 -2 -33 11 -69 30 -45 23 -58 33 -42 34 12 0 37 -6 55
-13z m-44 -36 c25 -16 60 -33 76 -37 61 -15 105 -63 105 -116 0 -13 12 -48 26
-78 36 -75 35 -120 -5 -175 -17 -24 -31 -49 -31 -57 0 -7 -9 -32 -19 -55 -21
-45 -52 -66 -113 -77 -21 -4 -62 -18 -93 -32 -64 -30 -87 -27 -155 16 -25 16
-64 33 -87 39 -52 14 -88 56 -97 113 -4 23 -19 67 -33 96 -31 63 -27 106 12
158 14 19 33 56 41 83 18 63 57 96 121 105 27 3 59 13 72 22 58 41 110 39 180
-5z m-422 -167 c-19 -39 -33 -59 -35 -49 -6 25 5 59 29 88 36 47 40 29 6 -39z
m669 -21 c13 -68 -2 -66 -29 5 -15 40 -27 76 -27 80 1 18 51 -57 56 -85z
m-672 -252 c20 -56 23 -71 11 -61 -26 22 -45 66 -45 106 0 47 2 45 34 -45z
m673 29 c-5 -38 -40 -100 -57 -100 -5 0 6 32 23 70 17 39 33 70 35 70 3 0 2
-18 -1 -40z m-487 -215 c55 -29 61 -34 37 -35 -33 0 -75 20 -101 49 -26 29
-12 26 64 -14z m329 8 c-20 -24 -73 -43 -116 -42 -35 1 -31 3 42 29 44 16 82
29 84 29 2 1 -3 -6 -10 -16z"/>
<path d="M250 390 l0 -260 30 0 30 0 0 118 0 117 65 0 65 0 0 -117 0 -118 30
0 30 0 0 260 0 260 -30 0 -30 0 0 -115 0 -115 -65 0 -65 0 0 115 0 115 -30 0
-30 0 0 -260z"/>
</g>
</svg>
